<svg width="1440" height="900" viewBox="0 0 1440 900" fill="none" xmlns="http://www.w3.org/2000/svg">
  <rect width="1440" height="900" rx="40" fill="#F4EFE6"/>
  <circle cx="1260" cy="134" r="210" fill="#DDE8E2"/>
  <circle cx="180" cy="780" r="220" fill="#E5D2C4"/>
  <rect x="72" y="56" width="1296" height="788" rx="28" fill="#FFFDF8" stroke="#0F172A" stroke-width="3"/>
  <rect x="72" y="56" width="1296" height="68" rx="28" fill="#0F172A"/>
  <circle cx="118" cy="90" r="9" fill="#FCA5A5"/>
  <circle cx="148" cy="90" r="9" fill="#FCD34D"/>
  <circle cx="178" cy="90" r="9" fill="#86EFAC"/>
  <text x="222" y="98" fill="#FFFDF8" font-family="Trebuchet MS, Verdana, sans-serif" font-size="28" font-weight="700">GenAI Knowledge Assistant</text>
  <rect x="102" y="154" width="290" height="630" rx="24" fill="#0F172A"/>
  <text x="132" y="204" fill="#FFFDF8" font-family="Trebuchet MS, Verdana, sans-serif" font-size="28" font-weight="700">Demo Controls</text>
  <text x="132" y="254" fill="#CBD5E1" font-family="Trebuchet MS, Verdana, sans-serif" font-size="18">Corpus Source</text>
  <rect x="132" y="270" width="230" height="54" rx="16" fill="#1E293B"/>
  <text x="156" y="303" fill="#FFFDF8" font-family="Trebuchet MS, Verdana, sans-serif" font-size="20">Sample Documents</text>
  <text x="132" y="360" fill="#CBD5E1" font-family="Trebuchet MS, Verdana, sans-serif" font-size="18">Embedding Backend</text>
  <rect x="132" y="376" width="230" height="54" rx="16" fill="#1E293B"/>
  <text x="156" y="409" fill="#FFFDF8" font-family="Trebuchet MS, Verdana, sans-serif" font-size="20">hashing</text>
  <text x="132" y="466" fill="#CBD5E1" font-family="Trebuchet MS, Verdana, sans-serif" font-size="18">Generation Backend</text>
  <rect x="132" y="482" width="230" height="54" rx="16" fill="#1E293B"/>
  <text x="156" y="515" fill="#FFFDF8" font-family="Trebuchet MS, Verdana, sans-serif" font-size="20">extractive</text>
  <rect x="132" y="584" width="230" height="60" rx="18" fill="#E76F51"/>
  <text x="186" y="622" fill="#FFFDF8" font-family="Trebuchet MS, Verdana, sans-serif" font-size="24" font-weight="700">Build Index</text>
  <rect x="132" y="664" width="230" height="78" rx="18" fill="#17324D"/>
  <text x="156" y="704" fill="#FFFDF8" font-family="Trebuchet MS, Verdana, sans-serif" font-size="22" font-weight="700">Run Sample</text>
  <text x="156" y="730" fill="#CBD5E1" font-family="Trebuchet MS, Verdana, sans-serif" font-size="18">Evaluation</text>
  <text x="432" y="178" fill="#0F172A" font-family="Georgia, serif" font-size="34" font-weight="700">Source-grounded answers</text>
  <text x="432" y="218" fill="#0F172A" font-family="Georgia, serif" font-size="34" font-weight="700">with retrieval evidence</text>
  <text x="432" y="256" fill="#334155" font-family="Trebuchet MS, Verdana, sans-serif" font-size="20">Index documents, retrieve relevant chunks with FAISS, answer with citations, and inspect metrics in one place.</text>
  <rect x="432" y="284" width="252" height="118" rx="22" fill="#E9F2EC"/>
  <text x="460" y="334" fill="#0F172A" font-family="Trebuchet MS, Verdana, sans-serif" font-size="20">Documents</text>
  <text x="460" y="376" fill="#0F172A" font-family="Georgia, serif" font-size="44" font-weight="700">3</text>
  <rect x="706" y="284" width="252" height="118" rx="22" fill="#FEF0E7"/>
  <text x="734" y="334" fill="#0F172A" font-family="Trebuchet MS, Verdana, sans-serif" font-size="20">Chunks</text>
  <text x="734" y="376" fill="#0F172A" font-family="Georgia, serif" font-size="44" font-weight="700">3</text>
  <rect x="980" y="284" width="322" height="118" rx="22" fill="#EAF0F7"/>
  <text x="1008" y="334" fill="#0F172A" font-family="Trebuchet MS, Verdana, sans-serif" font-size="20">Backend</text>
  <text x="1008" y="376" fill="#0F172A" font-family="Georgia, serif" font-size="31" font-weight="700">hashing + extractive</text>
  <rect x="432" y="440" width="870" height="188" rx="24" fill="#0F172A"/>
  <text x="468" y="488" fill="#94A3B8" font-family="Trebuchet MS, Verdana, sans-serif" font-size="18">Question</text>
  <text x="468" y="526" fill="#FFFDF8" font-family="Trebuchet MS, Verdana, sans-serif" font-size="28" font-weight="700">How quickly must a security incident be reported?</text>
  <rect x="468" y="552" width="798" height="52" rx="18" fill="#1E293B"/>
  <text x="492" y="584" fill="#FFFDF8" font-family="Trebuchet MS, Verdana, sans-serif" font-size="22">Suspected security incidents must be reported within one hour of discovery.</text>
  <text x="468" y="614" fill="#FCA5A5" font-family="Trebuchet MS, Verdana, sans-serif" font-size="18">[security_policy.md#chunk-0]</text>
  <rect x="432" y="658" width="416" height="148" rx="24" fill="#FFF4ED" stroke="#E76F51" stroke-width="2"/>
  <text x="462" y="704" fill="#0F172A" font-family="Trebuchet MS, Verdana, sans-serif" font-size="24" font-weight="700">Retrieved Chunks</text>
  <text x="462" y="740" fill="#334155" font-family="Trebuchet MS, Verdana, sans-serif" font-size="20">Rank 1 | score 0.4471</text>
  <text x="462" y="772" fill="#0F172A" font-family="Trebuchet MS, Verdana, sans-serif" font-size="19">security_policy.md#chunk-0</text>
  <rect x="886" y="658" width="416" height="148" rx="24" fill="#EEF6F0" stroke="#2A9D8F" stroke-width="2"/>
  <text x="916" y="704" fill="#0F172A" font-family="Trebuchet MS, Verdana, sans-serif" font-size="24" font-weight="700">Evaluation Snapshot</text>
  <text x="916" y="740" fill="#334155" font-family="Trebuchet MS, Verdana, sans-serif" font-size="20">Hit Rate: 1.0</text>
  <text x="916" y="770" fill="#334155" font-family="Trebuchet MS, Verdana, sans-serif" font-size="20">MRR: 1.0</text>
  <text x="916" y="800" fill="#334155" font-family="Trebuchet MS, Verdana, sans-serif" font-size="20">Answer Token F1: 0.6348</text>
</svg>
